# xmcd CD database file
#
# Track frame offsets:
#	150
#	22657
#	49021
#	65939
#	76166
#	113265
#	145485
#	184037
#	197570
#	228814
#	254684
#	266806
#
# Disc length: 4186 seconds
#
# Revision: 0
# Processed by: cddbd v1.5.1PL2 Copyright (c) Steve Scherf et al.
# Submitted via: CDex 1.51
#
DISCID=9e10580c
DTITLE=Guns N' Roses - Rebellen Berlin Night  disc one
DYEAR=1900
DGENRE=Rock
TTITLE0=Nightrain
TTITLE1=Mr. Brownstone
TTITLE2=Live and Let Die
TTITLE3=Attitude
TTITLE4=Bad Obsession
TTITLE5=Double Talkin' Jive
TTITLE6=Civil War
TTITLE7=Wild Horses
TTITLE8=Patience
TTITLE9=Welcome to the Jungle
TTITLE10=It's Alright
TTITLE11=November Rain
EXTD=
EXTT0=
EXTT1=
EXTT2=
EXTT3=
EXTT4=
EXTT5=
EXTT6=
EXTT7=
EXTT8=
EXTT9=
EXTT10=
EXTT11=
PLAYORDER=
